<svg xmlns="http://www.w3.org/2000/svg" width="400" height="400" viewBox="0 0 400 400">
  <!-- Background -->
  <rect x="0" y="0" width="400" height="400" fill="#f5f6fa" />
  <circle cx="200" cy="200" r="150" fill="#6c5ce7" opacity="0.1" />
  
  <!-- Game Designer Character -->
  <g transform="translate(125, 50)">
    <!-- Head -->
    <circle cx="75" cy="75" r="60" fill="#ffeaa7" />
    
    <!-- Hair -->
    <path d="M30 60 Q75 0 120 60 L120 80 Q75 60 30 80 Z" fill="#6c5ce7" />
    
    <!-- Eyes -->
    <circle cx="50" cy="70" r="8" fill="white" stroke="#2d3436" stroke-width="1" />
    <circle cx="100" cy="70" r="8" fill="white" stroke="#2d3436" stroke-width="1" />
    <circle cx="50" cy="70" r="4" fill="#2d3436" />
    <circle cx="100" cy="70" r="4" fill="#2d3436" />
    
    <!-- Eyebrows -->
    <path d="M42 60 Q50 55 58 60" stroke="#2d3436" stroke-width="2" fill="none" />
    <path d="M92 60 Q100 55 108 60" stroke="#2d3436" stroke-width="2" fill="none" />
    
    <!-- Smile -->
    <path d="M50 100 Q75 120 100 100" stroke="#2d3436" stroke-width="2" fill="none" />
    
    <!-- Glasses -->
    <rect x="40" y="65" width="20" height="15" rx="5" fill="none" stroke="#2d3436" stroke-width="1" />
    <rect x="90" y="65" width="20" height="15" rx="5" fill="none" stroke="#2d3436" stroke-width="1" />
    <path d="M60 72 L90 72" stroke="#2d3436" stroke-width="1" fill="none" />
    
    <!-- Neck -->
    <rect x="65" y="135" width="20" height="20" fill="#ffeaa7" />
    
    <!-- Body/Shirt -->
    <rect x="35" y="155" width="80" height="100" rx="10" fill="#74b9ff" />
    
    <!-- Game Controller -->
    <g transform="translate(0, 180)">
      <rect x="0" y="0" width="50" height="30" rx="5" fill="#2d3436" />
      <circle cx="15" cy="15" r="8" fill="#fd79a8" />
      <circle cx="35" cy="15" r="8" fill="#00b894" />
    </g>
    
    <!-- Design Tablet -->
    <g transform="translate(100, 180)">
      <rect x="0" y="0" width="50" height="40" rx="5" fill="#2d3436" />
      <rect x="5" y="5" width="40" height="30" rx="2" fill="#81ecec" />
      <path d="M10 20 L20 10 L30 25 L40 15" stroke="#2d3436" stroke-width="1" fill="none" />
    </g>
  </g>
  
  <!-- Decorative Elements -->
  <g transform="translate(50, 50)">
    <!-- Game Icons -->
    <circle cx="25" cy="25" r="20" fill="#fd79a8" opacity="0.7" />
    <text x="25" y="30" font-family="Arial" font-size="20" fill="white" text-anchor="middle">🎮</text>
  </g>
  
  <g transform="translate(300, 50)">
    <!-- Design Icons -->
    <circle cx="25" cy="25" r="20" fill="#00b894" opacity="0.7" />
    <text x="25" y="30" font-family="Arial" font-size="20" fill="white" text-anchor="middle">🎨</text>
  </g>
  
  <g transform="translate(50, 300)">
    <!-- Code Icons -->
    <circle cx="25" cy="25" r="20" fill="#0984e3" opacity="0.7" />
    <text x="25" y="30" font-family="Arial" font-size="20" fill="white" text-anchor="middle">💻</text>
  </g>
  
  <g transform="translate(300, 300)">
    <!-- Idea Icons -->
    <circle cx="25" cy="25" r="20" fill="#fdcb6e" opacity="0.7" />
    <text x="25" y="30" font-family="Arial" font-size="20" fill="white" text-anchor="middle">💡</text>
  </g>
</svg>