<svg xmlns="http://www.w3.org/2000/svg" width="400" height="300" viewBox="0 0 400 300">
  <!-- Background -->
  <rect x="0" y="0" width="400" height="300" fill="#fd79a8" opacity="0.2" />
  
  <!-- FPS Level Map -->
  <g transform="translate(50, 50)">
    <!-- Main Structure -->
    <rect x="0" y="0" width="300" height="200" fill="#dfe6e9" stroke="#2d3436" stroke-width="2" />
    
    <!-- Rooms and Corridors -->
    <rect x="20" y="20" width="80" height="60" fill="#636e72" stroke="#2d3436" stroke-width="1" />
    <rect x="120" y="20" width="60" height="60" fill="#636e72" stroke="#2d3436" stroke-width="1" />
    <rect x="200" y="20" width="80" height="60" fill="#636e72" stroke="#2d3436" stroke-width="1" />
    
    <rect x="50" y="80" width="20" height="40" fill="#636e72" stroke="#2d3436" stroke-width="1" />
    <rect x="140" y="80" width="20" height="40" fill="#636e72" stroke="#2d3436" stroke-width="1" />
    <rect x="230" y="80" width="20" height="40" fill="#636e72" stroke="#2d3436" stroke-width="1" />
    
    <rect x="20" y="120" width="80" height="60" fill="#636e72" stroke="#2d3436" stroke-width="1" />
    <rect x="120" y="120" width="60" height="60" fill="#636e72" stroke="#2d3436" stroke-width="1" />
    <rect x="200" y="120" width="80" height="60" fill="#636e72" stroke="#2d3436" stroke-width="1" />
    
    <!-- Spawn Points -->
    <circle cx="60" cy="40" r="10" fill="#0984e3" />
    <text x="60" y="43" font-family="Arial" font-size="10" fill="white" text-anchor="middle">A</text>
    
    <circle cx="240" cy="40" r="10" fill="#e17055" />
    <text x="240" y="43" font-family="Arial" font-size="10" fill="white" text-anchor="middle">B</text>
    
    <!-- Objectives -->
    <rect x="140" y="40" width="20" height="20" fill="#00b894" stroke="#2d3436" stroke-width="1" />
    <text x="150" y="55" font-family="Arial" font-size="16" fill="white" text-anchor="middle">★</text>
    
    <!-- Cover Points -->
    <rect x="30" y="140" width="10" height="20" fill="#fdcb6e" />
    <rect x="80" y="140" width="10" height="20" fill="#fdcb6e" />
    <rect x="130" y="140" width="10" height="20" fill="#fdcb6e" />
    <rect x="160" y="140" width="10" height="20" fill="#fdcb6e" />
    <rect x="210" y="140" width="10" height="20" fill="#fdcb6e" />
    <rect x="260" y="140" width="10" height="20" fill="#fdcb6e" />
  </g>
  
  <!-- Legend -->
  <g transform="translate(20, 260)">
    <circle cx="10" cy="10" r="5" fill="#0984e3" />
    <text x="20" y="13" font-family="Arial" font-size="8" fill="#2d3436">Team A Spawn</text>
    
    <circle cx="90" cy="10" r="5" fill="#e17055" />
    <text x="100" y="13" font-family="Arial" font-size="8" fill="#2d3436">Team B Spawn</text>
    
    <rect x="170" y="5" width="10" height="10" fill="#00b894" />
    <text x="185" y="13" font-family="Arial" font-size="8" fill="#2d3436">Objective</text>
    
    <rect x="240" y="5" width="10" height="10" fill="#fdcb6e" />
    <text x="255" y="13" font-family="Arial" font-size="8" fill="#2d3436">Cover</text>
  </g>
  
  <!-- Title -->
  <rect x="100" y="10" width="200" height="30" fill="#fd79a8" rx="5" />
  <text x="120" y="30" font-family="Arial" font-size="16" font-weight="bold" fill="white">TACTICAL FPS LEVEL</text>
</svg>